<?xml version="1.0" encoding="utf-8"?>
<!-- Generator: Adobe Illustrator 25.2.1, SVG Export Plug-In . SVG Version: 6.00 Build 0)  -->
<svg version="1.1" id="レイヤー_1" xmlns="http://www.w3.org/2000/svg" xmlns:xlink="http://www.w3.org/1999/xlink" x="0px"
	 y="0px" viewBox="0 0 120 28" style="enable-background:new 0 0 120 28;" xml:space="preserve">
<style type="text/css">
	.st0{fill:#FFFFFF;}
</style>
<g>
	<path class="st0" d="M17.3,14.6H7v5.8h12V25H0.6V0.6h18.5v4.5H7v5.1h10.2V14.6z"/>
	<path class="st0" d="M28.8,16.7V25h-6.4V0.6H33c2,0,3.8,0.3,5.4,1s2.8,1.6,3.6,2.9c0.9,1.3,1.3,2.6,1.3,4.2c0,2.3-0.9,4.2-2.8,5.7
		c-1.9,1.5-4.4,2.2-7.7,2.2C32.9,16.7,28.8,16.7,28.8,16.7z M28.8,12.2H33c1.3,0,2.2-0.3,2.9-0.9c0.6-0.6,1-1.3,1-2.3
		c0-1.2-0.3-2-1-2.8c-0.7-0.7-1.6-1-2.8-1h-4.2v7H28.8z"/>
	<path class="st0" d="M69,13.2c0,2.3-0.4,4.5-1.5,6.3c-1,1.9-2.3,3.2-4.1,4.2c-1.8,1-3.8,1.5-6.1,1.5c-2.3,0-4.2-0.4-6.1-1.5
		c-1.8-1-3.2-2.3-4.1-4.1c-1-1.8-1.5-3.8-1.6-6.1v-1.3c0-2.3,0.4-4.5,1.5-6.3c1-1.8,2.3-3.2,4.1-4.2c1.8-1,3.8-1.5,6.1-1.5
		c2.3,0,4.2,0.4,6.1,1.5c1.8,1,3.2,2.3,4.1,4.2c1,1.8,1.5,3.9,1.5,6.3v1H69z M62.5,12.3c0-2.5-0.4-4.2-1.3-5.5
		c-0.9-1.3-2.2-1.9-3.8-1.9c-3.2,0-5,2.2-5.1,6.6v1.8c0,2.3,0.4,4.2,1.3,5.5c0.9,1.3,2.2,1.9,3.9,1.9c1.6,0,2.9-0.6,3.8-1.9
		c0.9-1.3,1.3-3.1,1.3-5.4v-1H62.5z"/>
	<path class="st0" d="M93.8,16.7c-0.1,1.8-0.6,3.2-1.5,4.5s-2.2,2.3-3.9,3.1c-1.6,0.7-3.5,1-5.7,1c-3.5,0-6.3-1-8.3-3.1
		c-2-2-3.1-5-3.1-8.8v-1.2c0-2.3,0.4-4.5,1.3-6.3c0.9-1.8,2.2-3.2,3.9-4.1c1.8-1,3.6-1.5,6-1.5c3.2,0,5.8,0.7,7.9,2.3
		c2,1.6,3.1,3.6,3.4,6.4h-6.4c0-1.5-0.4-2.5-1.2-3.2c-0.7-0.6-1.9-1-3.5-1c-1.6,0-2.8,0.6-3.5,1.6s-1.2,2.8-1.2,5.3v1.8
		c0,2.6,0.3,4.5,1,5.5c0.7,1.2,1.9,1.6,3.6,1.6c1.5,0,2.6-0.3,3.4-1c0.7-0.6,1.2-1.6,1.3-3.1H93.8z"/>
	<path class="st0" d="M119.4,24.9H113V14.6h-9.5v10.2h-6.4V0.6h6.4v9.6h9.5V0.6h6.4V24.9z"/>
</g>
</svg>
